<mxfile host="app.diagrams.net" modified="2022-05-25T22:47:01.582Z" agent="5.0 (Macintosh; Intel Mac OS X 10_15_7) AppleWebKit/537.36 (KHTML, like Gecko) Chrome/101.0.4951.64 Safari/537.36" etag="8UVmz2fJq91NISeSXtL_" version="18.0.3" type="github">
  <diagram id="-lqWBguuWurtZHE7vkYu" name="Page-1">
    <mxGraphModel dx="946" dy="646" grid="1" gridSize="10" guides="1" tooltips="1" connect="1" arrows="1" fold="1" page="1" pageScale="1" pageWidth="827" pageHeight="1169" math="0" shadow="0">
      <root>
        <mxCell id="0" />
        <mxCell id="1" parent="0" />
        <mxCell id="ci_nMEpppjh-tdaIcCAd-1" value="&lt;font style=&quot;font-size: 30px;&quot;&gt;&lt;b&gt;BERT&lt;/b&gt;&lt;/font&gt;" style="rounded=1;whiteSpace=wrap;html=1;fillColor=#fff2cc;strokeColor=#d6b656;" vertex="1" parent="1">
          <mxGeometry x="254" y="210" width="320" height="200" as="geometry" />
        </mxCell>
        <mxCell id="ci_nMEpppjh-tdaIcCAd-2" value="W&lt;sub&gt;1&lt;/sub&gt;" style="rounded=1;whiteSpace=wrap;html=1;" vertex="1" parent="1">
          <mxGeometry x="344" y="147" width="40" height="20" as="geometry" />
        </mxCell>
        <mxCell id="ci_nMEpppjh-tdaIcCAd-3" value="W&lt;sub&gt;2&lt;/sub&gt;" style="rounded=1;whiteSpace=wrap;html=1;" vertex="1" parent="1">
          <mxGeometry x="394" y="147" width="40" height="20" as="geometry" />
        </mxCell>
        <mxCell id="ci_nMEpppjh-tdaIcCAd-4" value="[SEP]" style="rounded=1;whiteSpace=wrap;html=1;" vertex="1" parent="1">
          <mxGeometry x="444" y="147" width="40" height="20" as="geometry" />
        </mxCell>
        <mxCell id="ci_nMEpppjh-tdaIcCAd-5" value="[PAD]" style="rounded=1;whiteSpace=wrap;html=1;" vertex="1" parent="1">
          <mxGeometry x="494" y="147" width="40" height="20" as="geometry" />
        </mxCell>
        <mxCell id="ci_nMEpppjh-tdaIcCAd-6" value="[CLS]" style="rounded=1;whiteSpace=wrap;html=1;" vertex="1" parent="1">
          <mxGeometry x="294" y="147" width="40" height="20" as="geometry" />
        </mxCell>
        <mxCell id="ci_nMEpppjh-tdaIcCAd-12" value="E&lt;sub&gt;1&lt;/sub&gt;" style="rounded=1;whiteSpace=wrap;html=1;" vertex="1" parent="1">
          <mxGeometry x="344" y="453" width="40" height="20" as="geometry" />
        </mxCell>
        <mxCell id="ci_nMEpppjh-tdaIcCAd-13" value="E&lt;sub&gt;2&lt;br&gt;&lt;/sub&gt;" style="rounded=1;whiteSpace=wrap;html=1;" vertex="1" parent="1">
          <mxGeometry x="394" y="453" width="40" height="20" as="geometry" />
        </mxCell>
        <mxCell id="ci_nMEpppjh-tdaIcCAd-14" value="E[&lt;span style=&quot;font-size: 10px;&quot;&gt;SEP]&lt;/span&gt;" style="rounded=1;whiteSpace=wrap;html=1;" vertex="1" parent="1">
          <mxGeometry x="444" y="453" width="40" height="20" as="geometry" />
        </mxCell>
        <mxCell id="ci_nMEpppjh-tdaIcCAd-15" value="E&lt;sub&gt;[PAD]&lt;/sub&gt;" style="rounded=1;whiteSpace=wrap;html=1;" vertex="1" parent="1">
          <mxGeometry x="494" y="453" width="40" height="20" as="geometry" />
        </mxCell>
        <mxCell id="ci_nMEpppjh-tdaIcCAd-16" value="E&lt;sub&gt;[CLS]&lt;/sub&gt;" style="rounded=1;whiteSpace=wrap;html=1;" vertex="1" parent="1">
          <mxGeometry x="294" y="453" width="40" height="20" as="geometry" />
        </mxCell>
        <mxCell id="ci_nMEpppjh-tdaIcCAd-27" value="&lt;font size=&quot;1&quot;&gt;&lt;b style=&quot;font-size: 14px;&quot;&gt;0/1&lt;/b&gt;&lt;/font&gt;" style="rounded=0;whiteSpace=wrap;html=1;fontSize=12;" vertex="1" parent="1">
          <mxGeometry x="299" y="518" width="30" height="30" as="geometry" />
        </mxCell>
        <mxCell id="ci_nMEpppjh-tdaIcCAd-28" value="" style="rounded=0;whiteSpace=wrap;html=1;fontSize=12;" vertex="1" parent="1">
          <mxGeometry x="349" y="518" width="30" height="120" as="geometry" />
        </mxCell>
        <mxCell id="ci_nMEpppjh-tdaIcCAd-29" value="&lt;font style=&quot;font-size: 10px;&quot;&gt;None&lt;/font&gt;" style="text;html=1;strokeColor=none;fillColor=none;align=center;verticalAlign=middle;whiteSpace=wrap;rounded=0;fontSize=14;fontStyle=1" vertex="1" parent="1">
          <mxGeometry x="349" y="518" width="30" height="20" as="geometry" />
        </mxCell>
        <mxCell id="ci_nMEpppjh-tdaIcCAd-30" value="&lt;font style=&quot;font-size: 14px;&quot;&gt;&lt;b&gt;cV&lt;/b&gt;&lt;/font&gt;" style="text;html=1;strokeColor=none;fillColor=none;align=center;verticalAlign=middle;whiteSpace=wrap;rounded=0;fontSize=14;" vertex="1" parent="1">
          <mxGeometry x="349" y="538" width="30" height="20" as="geometry" />
        </mxCell>
        <mxCell id="ci_nMEpppjh-tdaIcCAd-31" value="&lt;font size=&quot;1&quot;&gt;&lt;b style=&quot;font-size: 12px;&quot;&gt;cR1&lt;/b&gt;&lt;/font&gt;" style="text;html=1;strokeColor=none;fillColor=none;align=center;verticalAlign=middle;whiteSpace=wrap;rounded=0;fontSize=14;" vertex="1" parent="1">
          <mxGeometry x="349" y="558" width="30" height="20" as="geometry" />
        </mxCell>
        <mxCell id="ci_nMEpppjh-tdaIcCAd-32" value="&lt;font size=&quot;1&quot;&gt;&lt;b style=&quot;font-size: 12px;&quot;&gt;cR2&lt;/b&gt;&lt;/font&gt;" style="text;html=1;strokeColor=none;fillColor=none;align=center;verticalAlign=middle;whiteSpace=wrap;rounded=0;fontSize=14;" vertex="1" parent="1">
          <mxGeometry x="349" y="578" width="30" height="20" as="geometry" />
        </mxCell>
        <mxCell id="ci_nMEpppjh-tdaIcCAd-33" value="&lt;font size=&quot;1&quot;&gt;&lt;b style=&quot;font-size: 12px;&quot;&gt;R1&lt;/b&gt;&lt;/font&gt;" style="text;html=1;strokeColor=none;fillColor=none;align=center;verticalAlign=middle;whiteSpace=wrap;rounded=0;fontSize=14;" vertex="1" parent="1">
          <mxGeometry x="349" y="598" width="30" height="20" as="geometry" />
        </mxCell>
        <mxCell id="ci_nMEpppjh-tdaIcCAd-34" value="&lt;font size=&quot;1&quot;&gt;&lt;b style=&quot;font-size: 12px;&quot;&gt;R2&lt;/b&gt;&lt;/font&gt;" style="text;html=1;strokeColor=none;fillColor=none;align=center;verticalAlign=middle;whiteSpace=wrap;rounded=0;fontSize=14;" vertex="1" parent="1">
          <mxGeometry x="349" y="618" width="30" height="20" as="geometry" />
        </mxCell>
        <mxCell id="ci_nMEpppjh-tdaIcCAd-35" value="" style="rounded=0;whiteSpace=wrap;html=1;fontSize=12;" vertex="1" parent="1">
          <mxGeometry x="399" y="518" width="30" height="120" as="geometry" />
        </mxCell>
        <mxCell id="ci_nMEpppjh-tdaIcCAd-36" value="&lt;font style=&quot;font-size: 10px;&quot;&gt;None&lt;/font&gt;" style="text;html=1;strokeColor=none;fillColor=none;align=center;verticalAlign=middle;whiteSpace=wrap;rounded=0;fontSize=14;fontStyle=1" vertex="1" parent="1">
          <mxGeometry x="399" y="518" width="30" height="20" as="geometry" />
        </mxCell>
        <mxCell id="ci_nMEpppjh-tdaIcCAd-37" value="&lt;font style=&quot;font-size: 14px;&quot;&gt;&lt;b&gt;cV&lt;/b&gt;&lt;/font&gt;" style="text;html=1;strokeColor=none;fillColor=none;align=center;verticalAlign=middle;whiteSpace=wrap;rounded=0;fontSize=14;" vertex="1" parent="1">
          <mxGeometry x="399" y="538" width="30" height="20" as="geometry" />
        </mxCell>
        <mxCell id="ci_nMEpppjh-tdaIcCAd-38" value="&lt;font size=&quot;1&quot;&gt;&lt;b style=&quot;font-size: 12px;&quot;&gt;cR1&lt;/b&gt;&lt;/font&gt;" style="text;html=1;strokeColor=none;fillColor=none;align=center;verticalAlign=middle;whiteSpace=wrap;rounded=0;fontSize=14;labelBorderColor=none;" vertex="1" parent="1">
          <mxGeometry x="399" y="558" width="30" height="20" as="geometry" />
        </mxCell>
        <mxCell id="ci_nMEpppjh-tdaIcCAd-39" value="&lt;font size=&quot;1&quot;&gt;&lt;b style=&quot;font-size: 12px;&quot;&gt;cR2&lt;/b&gt;&lt;/font&gt;" style="text;html=1;strokeColor=none;fillColor=none;align=center;verticalAlign=middle;whiteSpace=wrap;rounded=0;fontSize=14;" vertex="1" parent="1">
          <mxGeometry x="399" y="578" width="30" height="20" as="geometry" />
        </mxCell>
        <mxCell id="ci_nMEpppjh-tdaIcCAd-40" value="&lt;font size=&quot;1&quot;&gt;&lt;b style=&quot;font-size: 12px;&quot;&gt;R1&lt;/b&gt;&lt;/font&gt;" style="text;html=1;strokeColor=none;fillColor=none;align=center;verticalAlign=middle;whiteSpace=wrap;rounded=0;fontSize=14;" vertex="1" parent="1">
          <mxGeometry x="399" y="598" width="30" height="20" as="geometry" />
        </mxCell>
        <mxCell id="ci_nMEpppjh-tdaIcCAd-41" value="&lt;font size=&quot;1&quot;&gt;&lt;b style=&quot;font-size: 12px;&quot;&gt;R2&lt;/b&gt;&lt;/font&gt;" style="text;html=1;strokeColor=none;fillColor=none;align=center;verticalAlign=middle;whiteSpace=wrap;rounded=0;fontSize=14;" vertex="1" parent="1">
          <mxGeometry x="399" y="618" width="30" height="20" as="geometry" />
        </mxCell>
        <mxCell id="ci_nMEpppjh-tdaIcCAd-42" value="" style="rounded=0;whiteSpace=wrap;html=1;fontSize=12;" vertex="1" parent="1">
          <mxGeometry x="449" y="518" width="30" height="120" as="geometry" />
        </mxCell>
        <mxCell id="ci_nMEpppjh-tdaIcCAd-43" value="&lt;font style=&quot;font-size: 10px;&quot;&gt;None&lt;/font&gt;" style="text;html=1;strokeColor=none;fillColor=none;align=center;verticalAlign=middle;whiteSpace=wrap;rounded=0;fontSize=14;fontStyle=1" vertex="1" parent="1">
          <mxGeometry x="449" y="518" width="30" height="20" as="geometry" />
        </mxCell>
        <mxCell id="ci_nMEpppjh-tdaIcCAd-44" value="&lt;font style=&quot;font-size: 14px;&quot;&gt;&lt;b&gt;cV&lt;/b&gt;&lt;/font&gt;" style="text;html=1;strokeColor=none;fillColor=none;align=center;verticalAlign=middle;whiteSpace=wrap;rounded=0;fontSize=14;" vertex="1" parent="1">
          <mxGeometry x="449" y="538" width="30" height="20" as="geometry" />
        </mxCell>
        <mxCell id="ci_nMEpppjh-tdaIcCAd-45" value="&lt;font size=&quot;1&quot;&gt;&lt;b style=&quot;font-size: 12px;&quot;&gt;cR1&lt;/b&gt;&lt;/font&gt;" style="text;html=1;strokeColor=none;fillColor=none;align=center;verticalAlign=middle;whiteSpace=wrap;rounded=0;fontSize=14;" vertex="1" parent="1">
          <mxGeometry x="449" y="558" width="30" height="20" as="geometry" />
        </mxCell>
        <mxCell id="ci_nMEpppjh-tdaIcCAd-46" value="&lt;font size=&quot;1&quot;&gt;&lt;b style=&quot;font-size: 12px;&quot;&gt;cR2&lt;/b&gt;&lt;/font&gt;" style="text;html=1;strokeColor=none;fillColor=none;align=center;verticalAlign=middle;whiteSpace=wrap;rounded=0;fontSize=14;" vertex="1" parent="1">
          <mxGeometry x="449" y="578" width="30" height="20" as="geometry" />
        </mxCell>
        <mxCell id="ci_nMEpppjh-tdaIcCAd-47" value="&lt;font size=&quot;1&quot;&gt;&lt;b style=&quot;font-size: 12px;&quot;&gt;R1&lt;/b&gt;&lt;/font&gt;" style="text;html=1;strokeColor=none;fillColor=none;align=center;verticalAlign=middle;whiteSpace=wrap;rounded=0;fontSize=14;" vertex="1" parent="1">
          <mxGeometry x="449" y="598" width="30" height="20" as="geometry" />
        </mxCell>
        <mxCell id="ci_nMEpppjh-tdaIcCAd-48" value="&lt;font size=&quot;1&quot;&gt;&lt;b style=&quot;font-size: 12px;&quot;&gt;R2&lt;/b&gt;&lt;/font&gt;" style="text;html=1;strokeColor=none;fillColor=none;align=center;verticalAlign=middle;whiteSpace=wrap;rounded=0;fontSize=14;" vertex="1" parent="1">
          <mxGeometry x="449" y="618" width="30" height="20" as="geometry" />
        </mxCell>
        <mxCell id="ci_nMEpppjh-tdaIcCAd-49" value="" style="rounded=0;whiteSpace=wrap;html=1;fontSize=12;" vertex="1" parent="1">
          <mxGeometry x="499" y="518" width="30" height="120" as="geometry" />
        </mxCell>
        <mxCell id="ci_nMEpppjh-tdaIcCAd-50" value="&lt;font style=&quot;font-size: 10px;&quot;&gt;None&lt;/font&gt;" style="text;html=1;strokeColor=none;fillColor=none;align=center;verticalAlign=middle;whiteSpace=wrap;rounded=0;fontSize=14;fontStyle=1" vertex="1" parent="1">
          <mxGeometry x="499" y="518" width="30" height="20" as="geometry" />
        </mxCell>
        <mxCell id="ci_nMEpppjh-tdaIcCAd-51" value="&lt;font style=&quot;font-size: 14px;&quot;&gt;&lt;b&gt;cV&lt;/b&gt;&lt;/font&gt;" style="text;html=1;strokeColor=none;fillColor=none;align=center;verticalAlign=middle;whiteSpace=wrap;rounded=0;fontSize=14;" vertex="1" parent="1">
          <mxGeometry x="499" y="538" width="30" height="20" as="geometry" />
        </mxCell>
        <mxCell id="ci_nMEpppjh-tdaIcCAd-52" value="&lt;font size=&quot;1&quot;&gt;&lt;b style=&quot;font-size: 12px;&quot;&gt;cR1&lt;/b&gt;&lt;/font&gt;" style="text;html=1;strokeColor=none;fillColor=none;align=center;verticalAlign=middle;whiteSpace=wrap;rounded=0;fontSize=14;" vertex="1" parent="1">
          <mxGeometry x="499" y="558" width="30" height="20" as="geometry" />
        </mxCell>
        <mxCell id="ci_nMEpppjh-tdaIcCAd-53" value="&lt;font size=&quot;1&quot;&gt;&lt;b style=&quot;font-size: 12px;&quot;&gt;cR2&lt;/b&gt;&lt;/font&gt;" style="text;html=1;strokeColor=none;fillColor=none;align=center;verticalAlign=middle;whiteSpace=wrap;rounded=0;fontSize=14;" vertex="1" parent="1">
          <mxGeometry x="499" y="578" width="30" height="20" as="geometry" />
        </mxCell>
        <mxCell id="ci_nMEpppjh-tdaIcCAd-54" value="&lt;font size=&quot;1&quot;&gt;&lt;b style=&quot;font-size: 12px;&quot;&gt;R1&lt;/b&gt;&lt;/font&gt;" style="text;html=1;strokeColor=none;fillColor=none;align=center;verticalAlign=middle;whiteSpace=wrap;rounded=0;fontSize=14;" vertex="1" parent="1">
          <mxGeometry x="499" y="598" width="30" height="20" as="geometry" />
        </mxCell>
        <mxCell id="ci_nMEpppjh-tdaIcCAd-55" value="&lt;font size=&quot;1&quot;&gt;&lt;b style=&quot;font-size: 12px;&quot;&gt;R2&lt;/b&gt;&lt;/font&gt;" style="text;html=1;strokeColor=none;fillColor=none;align=center;verticalAlign=middle;whiteSpace=wrap;rounded=0;fontSize=14;" vertex="1" parent="1">
          <mxGeometry x="499" y="618" width="30" height="20" as="geometry" />
        </mxCell>
        <mxCell id="ci_nMEpppjh-tdaIcCAd-62" value="" style="endArrow=blockThin;html=1;rounded=0;endSize=6;strokeWidth=4;fillColor=#39434D;endFill=1;" edge="1" parent="1">
          <mxGeometry width="50" height="50" relative="1" as="geometry">
            <mxPoint x="313.5" y="413" as="sourcePoint" />
            <mxPoint x="313.5" y="450" as="targetPoint" />
          </mxGeometry>
        </mxCell>
        <mxCell id="ci_nMEpppjh-tdaIcCAd-63" value="" style="endArrow=blockThin;html=1;rounded=0;endSize=6;strokeWidth=4;fillColor=#39434D;endFill=1;" edge="1" parent="1">
          <mxGeometry width="50" height="50" relative="1" as="geometry">
            <mxPoint x="363.5" y="413" as="sourcePoint" />
            <mxPoint x="363.5" y="450" as="targetPoint" />
          </mxGeometry>
        </mxCell>
        <mxCell id="ci_nMEpppjh-tdaIcCAd-66" value="" style="endArrow=blockThin;html=1;rounded=0;endSize=6;strokeWidth=4;fillColor=#39434D;endFill=1;" edge="1" parent="1">
          <mxGeometry width="50" height="50" relative="1" as="geometry">
            <mxPoint x="413" y="413" as="sourcePoint" />
            <mxPoint x="413" y="450" as="targetPoint" />
          </mxGeometry>
        </mxCell>
        <mxCell id="ci_nMEpppjh-tdaIcCAd-67" value="" style="endArrow=blockThin;html=1;rounded=0;endSize=6;strokeWidth=4;fillColor=#39434D;endFill=1;" edge="1" parent="1">
          <mxGeometry width="50" height="50" relative="1" as="geometry">
            <mxPoint x="463.5" y="413" as="sourcePoint" />
            <mxPoint x="463.5" y="450" as="targetPoint" />
          </mxGeometry>
        </mxCell>
        <mxCell id="ci_nMEpppjh-tdaIcCAd-68" value="" style="endArrow=blockThin;html=1;rounded=0;endSize=6;strokeWidth=4;fillColor=#39434D;endFill=1;" edge="1" parent="1">
          <mxGeometry width="50" height="50" relative="1" as="geometry">
            <mxPoint x="513.5" y="413" as="sourcePoint" />
            <mxPoint x="513.5" y="450" as="targetPoint" />
          </mxGeometry>
        </mxCell>
        <mxCell id="ci_nMEpppjh-tdaIcCAd-69" value="" style="endArrow=blockThin;html=1;rounded=0;endSize=6;strokeWidth=4;fillColor=#39434D;endFill=1;" edge="1" parent="1">
          <mxGeometry width="50" height="50" relative="1" as="geometry">
            <mxPoint x="313.5" y="170" as="sourcePoint" />
            <mxPoint x="313.5" y="207" as="targetPoint" />
          </mxGeometry>
        </mxCell>
        <mxCell id="ci_nMEpppjh-tdaIcCAd-70" value="" style="endArrow=blockThin;html=1;rounded=0;endSize=6;strokeWidth=4;fillColor=#39434D;endFill=1;" edge="1" parent="1">
          <mxGeometry width="50" height="50" relative="1" as="geometry">
            <mxPoint x="363.5" y="170" as="sourcePoint" />
            <mxPoint x="363.5" y="207" as="targetPoint" />
          </mxGeometry>
        </mxCell>
        <mxCell id="ci_nMEpppjh-tdaIcCAd-71" value="" style="endArrow=blockThin;html=1;rounded=0;endSize=6;strokeWidth=4;fillColor=#39434D;endFill=1;" edge="1" parent="1">
          <mxGeometry width="50" height="50" relative="1" as="geometry">
            <mxPoint x="414" y="170" as="sourcePoint" />
            <mxPoint x="414" y="207" as="targetPoint" />
          </mxGeometry>
        </mxCell>
        <mxCell id="ci_nMEpppjh-tdaIcCAd-72" value="" style="endArrow=blockThin;html=1;rounded=0;endSize=6;strokeWidth=4;fillColor=#39434D;endFill=1;" edge="1" parent="1">
          <mxGeometry width="50" height="50" relative="1" as="geometry">
            <mxPoint x="463.5" y="170" as="sourcePoint" />
            <mxPoint x="463.5" y="207" as="targetPoint" />
          </mxGeometry>
        </mxCell>
        <mxCell id="ci_nMEpppjh-tdaIcCAd-73" value="" style="endArrow=blockThin;html=1;rounded=0;endSize=6;strokeWidth=4;fillColor=#39434D;endFill=1;" edge="1" parent="1">
          <mxGeometry width="50" height="50" relative="1" as="geometry">
            <mxPoint x="513.5" y="170" as="sourcePoint" />
            <mxPoint x="513.5" y="207" as="targetPoint" />
          </mxGeometry>
        </mxCell>
        <mxCell id="ci_nMEpppjh-tdaIcCAd-75" value="" style="endArrow=blockThin;html=1;rounded=0;endSize=6;strokeWidth=4;fillColor=#39434D;endFill=1;" edge="1" parent="1">
          <mxGeometry width="50" height="50" relative="1" as="geometry">
            <mxPoint x="313.5" y="476" as="sourcePoint" />
            <mxPoint x="313.5" y="513" as="targetPoint" />
          </mxGeometry>
        </mxCell>
        <mxCell id="ci_nMEpppjh-tdaIcCAd-76" value="" style="endArrow=blockThin;html=1;rounded=0;endSize=6;strokeWidth=4;fillColor=#39434D;endFill=1;" edge="1" parent="1">
          <mxGeometry width="50" height="50" relative="1" as="geometry">
            <mxPoint x="363.5" y="476" as="sourcePoint" />
            <mxPoint x="363.5" y="513" as="targetPoint" />
          </mxGeometry>
        </mxCell>
        <mxCell id="ci_nMEpppjh-tdaIcCAd-77" value="" style="endArrow=blockThin;html=1;rounded=0;endSize=6;strokeWidth=4;fillColor=#39434D;endFill=1;" edge="1" parent="1">
          <mxGeometry width="50" height="50" relative="1" as="geometry">
            <mxPoint x="413" y="476" as="sourcePoint" />
            <mxPoint x="413" y="513" as="targetPoint" />
          </mxGeometry>
        </mxCell>
        <mxCell id="ci_nMEpppjh-tdaIcCAd-78" value="" style="endArrow=blockThin;html=1;rounded=0;endSize=6;strokeWidth=4;fillColor=#39434D;endFill=1;" edge="1" parent="1">
          <mxGeometry width="50" height="50" relative="1" as="geometry">
            <mxPoint x="463.5" y="476" as="sourcePoint" />
            <mxPoint x="463.5" y="513" as="targetPoint" />
          </mxGeometry>
        </mxCell>
        <mxCell id="ci_nMEpppjh-tdaIcCAd-79" value="" style="endArrow=blockThin;html=1;rounded=0;endSize=6;strokeWidth=4;fillColor=#39434D;endFill=1;" edge="1" parent="1">
          <mxGeometry width="50" height="50" relative="1" as="geometry">
            <mxPoint x="513.5" y="476" as="sourcePoint" />
            <mxPoint x="513.5" y="513" as="targetPoint" />
          </mxGeometry>
        </mxCell>
      </root>
    </mxGraphModel>
  </diagram>
</mxfile>
